<svg width="22" height="23" viewBox="0 0 22 23" fill="none" xmlns="http://www.w3.org/2000/svg">
<g id="Frame">
<path id="Vector" d="M10.9997 8.71842C10.2704 8.71842 9.57087 9.00816 9.05513 9.52388C8.53941 10.0396 8.24967 10.7391 8.24967 11.4684C8.24967 12.1977 8.53941 12.8972 9.05513 13.4129C9.57087 13.9287 10.2704 14.2184 10.9997 14.2184C11.729 14.2184 12.4285 13.9287 12.9442 13.4129C13.4599 12.8972 13.7497 12.1977 13.7497 11.4684C13.7497 10.7391 13.4599 10.0396 12.9442 9.52388C12.4285 9.00816 11.729 8.71842 10.9997 8.71842ZM10.9997 6.88509C12.2153 6.88509 13.3811 7.36797 14.2405 8.22752C15.1001 9.08706 15.583 10.2528 15.583 11.4684C15.583 12.684 15.1001 13.8498 14.2405 14.7093C13.3811 15.5689 12.2153 16.0518 10.9997 16.0518C9.78408 16.0518 8.61831 15.5689 7.75877 14.7093C6.89922 13.8498 6.41634 12.684 6.41634 11.4684C6.41634 10.2528 6.89922 9.08706 7.75877 8.22752C8.61831 7.36797 9.78408 6.88509 10.9997 6.88509ZM16.958 6.65592C16.958 6.95982 16.8373 7.25126 16.6224 7.46615C16.4075 7.68103 16.116 7.80176 15.8122 7.80176C15.5083 7.80176 15.2168 7.68103 15.0019 7.46615C14.7871 7.25126 14.6663 6.95982 14.6663 6.65592C14.6663 6.35203 14.7871 6.06059 15.0019 5.8457C15.2168 5.63082 15.5083 5.51009 15.8122 5.51009C16.116 5.51009 16.4075 5.63082 16.6224 5.8457C16.8373 6.06059 16.958 6.35203 16.958 6.65592ZM10.9997 4.13509C8.73184 4.13509 8.36151 4.14151 7.30642 4.18826C6.58776 4.22217 6.10559 4.31842 5.65826 4.49259C5.26042 4.64659 4.97351 4.83084 4.66826 5.13701C4.38135 5.41421 4.16075 5.75262 4.02292 6.12701C3.84876 6.57617 3.75251 7.05742 3.71951 7.77517C3.67184 8.78717 3.66634 9.14101 3.66634 11.4684C3.66634 13.7363 3.67276 14.1066 3.71951 15.1617C3.75342 15.8794 3.84967 16.3625 4.02292 16.8089C4.17876 17.2077 4.36209 17.4946 4.66642 17.7989C4.97534 18.1069 5.26226 18.2912 5.65642 18.4433C6.10926 18.6184 6.59142 18.7156 7.30642 18.7486C8.31842 18.7963 8.67226 18.8018 10.9997 18.8018C13.2675 18.8018 13.6378 18.7953 14.6929 18.7486C15.4098 18.7147 15.8928 18.6184 16.3402 18.4452C16.7371 18.2903 17.0258 18.106 17.3302 17.8017C17.6391 17.4928 17.8233 17.2058 17.9755 16.8117C18.1497 16.3598 18.2468 15.8767 18.2798 15.1617C18.3275 14.1497 18.333 13.7958 18.333 11.4684C18.333 9.20059 18.3266 8.83026 18.2798 7.77517C18.2459 7.05834 18.1497 6.57434 17.9755 6.12701C17.8374 5.75301 17.6172 5.41472 17.3311 5.13701C17.054 4.84995 16.7155 4.62933 16.3411 4.49167C15.8919 4.31751 15.4098 4.22126 14.6929 4.18826C13.6809 4.14059 13.3271 4.13509 10.9997 4.13509ZM10.9997 2.30176C13.4903 2.30176 13.801 2.31092 14.7782 2.35676C15.7544 2.40259 16.419 2.55567 17.0038 2.78301C17.6088 3.01584 18.1185 3.33117 18.6282 3.83992C19.0943 4.29817 19.455 4.85247 19.6851 5.46426C19.9115 6.04817 20.0655 6.71367 20.1113 7.68992C20.1544 8.66709 20.1663 8.97784 20.1663 11.4684C20.1663 13.959 20.1572 14.2698 20.1113 15.2469C20.0655 16.2232 19.9115 16.8878 19.6851 17.4726C19.4557 18.0847 19.0949 18.6391 18.6282 19.0969C18.1698 19.5629 17.6155 19.9236 17.0038 20.1538C16.4199 20.3803 15.7544 20.5343 14.7782 20.5801C13.801 20.6232 13.4903 20.6351 10.9997 20.6351C8.50909 20.6351 8.19834 20.6259 7.22117 20.5801C6.24492 20.5343 5.58034 20.3803 4.99551 20.1538C4.38348 19.9242 3.82908 19.5634 3.37117 19.0969C2.90497 18.6388 2.54428 18.0845 2.31426 17.4726C2.08692 16.8887 1.93384 16.2232 1.88801 15.2469C1.84492 14.2698 1.83301 13.959 1.83301 11.4684C1.83301 8.97784 1.84217 8.66709 1.88801 7.68992C1.93384 6.71276 2.08692 6.04909 2.31426 5.46426C2.54364 4.85209 2.90441 4.29763 3.37117 3.83992C3.82921 3.37355 4.38357 3.01284 4.99551 2.78301C5.58034 2.55567 6.24401 2.40259 7.22117 2.35676C8.19834 2.31367 8.50909 2.30176 10.9997 2.30176Z" fill="white"/>
</g>
</svg>
