<svg width="22" height="23" viewBox="0 0 22 23" fill="currentColor"
    aria-hidden="true" xmlns="http://www.w3.org/2000/svg">
    <g id="Frame">
        <path id="Vector"
            d="M6.36204 5.0521C6.36179 5.53834 6.16841 6.00455 5.82442 6.34819C5.48044 6.69184 5.01402 6.88476 4.52779 6.88452C4.04156 6.88428 3.57534 6.69089 3.2317 6.3469C2.88805 6.00291 2.69513 5.5365 2.69537 5.05027C2.69562 4.56404 2.889 4.09782 3.23299 3.75417C3.57698 3.41053 4.0434 3.21761 4.52962 3.21785C5.01585 3.2181 5.48208 3.41149 5.82572 3.75547C6.16937 4.09946 6.36229 4.56587 6.36204 5.0521ZM6.41704 8.2421H2.75037V19.7187H6.41704V8.2421ZM12.2103 8.2421H8.56204V19.7187H12.1737V13.6962C12.1737 10.3412 16.5462 10.0296 16.5462 13.6962V19.7187H20.167V12.4496C20.167 6.79377 13.6953 7.0046 12.1737 9.78208L12.2103 8.2421Z"
            fill="white" />
    </g>
</svg>