<svg width="137" height="20" viewBox="0 0 137 20" fill="none" xmlns="http://www.w3.org/2000/svg">
<g id="Group 163451">
<g id="Group">
<path id="Vector" d="M7.25145 0.102766L18.5236 11.375C18.5879 11.4392 18.6264 11.5291 18.6264 11.6255V18.2411C18.6264 18.5558 18.2475 18.7099 18.0227 18.4915L11.2337 11.7025C11.0988 11.5677 10.874 11.5677 10.7327 11.7025L8.47823 13.957L6.74404 15.6912L3.91155 18.5237C3.84732 18.5879 3.7574 18.6264 3.66105 18.6264H0.353259C0.160572 18.6264 0 18.4659 0 18.2732V14.9654C0 14.869 0.0385374 14.7791 0.102766 14.7149L2.93526 11.8824L4.66945 10.1482L6.92388 7.89375C7.05877 7.75887 7.05877 7.53407 6.92388 7.39276L0.141304 0.603753C-0.0834977 0.378951 0.0770748 0 0.391797 0H7.00738C7.10373 0 7.19365 0.0385374 7.25788 0.102766H7.25145Z" fill="url(#paint0_linear_0_199)"/>
<path id="Vector_2" d="M18.6273 0.35326V5.61362C18.6273 5.92834 18.2484 6.08249 18.0236 5.86411L12.7632 0.603753C12.5384 0.378951 12.699 0 13.0137 0H18.2741C18.4667 0 18.6273 0.160573 18.6273 0.35326Z" fill="url(#paint1_linear_0_199)"/>
</g>
<path id="Vector_3" d="M41.7586 0.317657V3.81188C41.7586 3.98836 41.6174 4.12954 41.441 4.12954H36.3302C36.1537 4.12954 36.0126 4.27072 36.0126 4.4472V18.7912C36.0126 18.9677 35.8714 19.1088 35.6949 19.1088H31.5159C31.3395 19.1088 31.1983 18.9677 31.1983 18.7912V4.4472C31.1983 4.27072 31.0571 4.12954 30.8806 4.12954H25.7981C25.6217 4.12954 25.4805 3.98836 25.4805 3.81188V0.317657C25.4805 0.141181 25.6217 0 25.7981 0H41.4268C41.6033 0 41.7445 0.141181 41.7445 0.317657H41.7586Z" fill="white"/>
<path id="Vector_4" d="M63.1819 12.0569L66.1749 18.6571C66.2667 18.8618 66.1184 19.1018 65.8855 19.1018H61.4383C61.3112 19.1018 61.2053 19.0312 61.1489 18.9182L58.2547 12.4592C58.2052 12.3463 58.0923 12.2757 57.9652 12.2757H54.0263C53.8498 12.2757 53.7086 12.4169 53.7086 12.5933V18.7982C53.7086 18.9747 53.5674 19.1159 53.391 19.1159H49.212C49.0355 19.1159 48.8944 18.9747 48.8944 18.7982V0.317657C48.8944 0.141181 49.0355 0 49.212 0H59.8782C64.1136 0 67.4808 3.84012 66.6055 7.98378C66.189 9.95325 64.989 10.9839 63.3372 11.6333C63.1677 11.6968 63.083 11.8874 63.1607 12.0569H63.1819ZM53.7298 8.10378C53.7298 8.28026 53.871 8.42144 54.0475 8.42144H59.7723C60.9724 8.42144 61.9606 7.6873 61.9606 6.31785C61.9606 4.94839 60.9794 4.12954 59.7723 4.12954H54.0475C53.871 4.12954 53.7298 4.27072 53.7298 4.4472V8.11084V8.10378Z" fill="white"/>
<path id="Vector_5" d="M92.8348 9.53677C92.8348 16.2287 88.7335 19.1018 81.5756 19.1018H74.2413C74.0648 19.1018 73.9236 18.9606 73.9236 18.7841V0.317657C73.9236 0.141181 74.0648 0 74.2413 0H81.5756C88.8676 0 92.8348 2.81656 92.8348 9.53677ZM87.9288 10.8639C88.4864 7.29905 85.571 4.12248 81.9639 4.12248H79.0202C78.8438 4.12248 78.7026 4.26366 78.7026 4.44014V14.6052C78.7026 14.7746 78.8438 14.9158 79.0132 14.9228L81.5686 14.944C85.3169 14.944 87.4558 13.8287 87.9217 10.8639H87.9288Z" fill="white"/>
<path id="Vector_6" d="M103.178 3.07774V7.85672C103.178 8.03319 103.319 8.17438 103.496 8.17438H113.251C113.428 8.17438 113.569 8.31556 113.569 8.49203V10.6239C113.569 10.8003 113.428 10.9415 113.251 10.9415H103.496C103.319 10.9415 103.178 11.0827 103.178 11.2592V16.0382C103.178 16.2146 103.319 16.3558 103.496 16.3558H114.614C114.79 16.3558 114.931 16.497 114.931 16.6735V18.8053C114.931 18.9818 114.79 19.123 114.614 19.123H100.241C100.065 19.123 99.9238 18.9818 99.9238 18.8053V0.317657C99.9238 0.141181 100.065 0 100.241 0H114.614C114.79 0 114.931 0.141181 114.931 0.317657V2.44949C114.931 2.62596 114.79 2.76715 114.614 2.76715H103.496C103.319 2.76715 103.178 2.90833 103.178 3.0848V3.07774Z" fill="white"/>
<g id="Group_2">
<path id="Vector_7" d="M122.359 2.78832H132.919V3.00715L124.053 13.6804H127.829L136.674 2.98598C136.724 2.9295 136.745 2.85891 136.745 2.78832V0.317657C136.745 0.141181 136.604 0 136.427 0H122.359C122.182 0 122.041 0.141181 122.041 0.317657V2.47772C122.041 2.6542 122.182 2.79538 122.359 2.79538V2.78832Z" fill="white"/>
<path id="Vector_8" d="M136.675 16.3418H122.07L122.049 18.7842C122.049 18.9607 122.19 19.1019 122.366 19.1019H136.682C136.859 19.1019 137 18.9607 137 18.7842V16.6524C137 16.4759 136.859 16.3347 136.682 16.3347L136.675 16.3418Z" fill="white"/>
</g>
</g>
<defs>
<linearGradient id="paint0_linear_0_199" x1="15.7758" y1="2.69448" x2="-3.26533" y2="10.608" gradientUnits="userSpaceOnUse">
<stop stop-color="#EF9E39"/>
<stop offset="1" stop-color="#FF4500"/>
</linearGradient>
<linearGradient id="paint1_linear_0_199" x1="6.61043" y1="11.9553" x2="21.1117" y2="5.92727" gradientUnits="userSpaceOnUse">
<stop stop-color="#EF9E39"/>
<stop offset="1" stop-color="#FF4500"/>
</linearGradient>
</defs>
</svg>
