<svg width="22" height="23" viewBox="0 0 22 23" fill="none" xmlns="http://www.w3.org/2000/svg">
<g id="Frame">
<path id="Vector" d="M19.7386 6.98818C19.7525 7.1836 19.7525 7.37907 19.7525 7.57449C19.7525 13.5351 15.2157 20.4032 6.92386 20.4032C4.36928 20.4032 1.9962 19.6633 0 18.3791C0.362957 18.4209 0.711906 18.4349 1.08883 18.4349C3.19666 18.4349 5.13704 17.723 6.68654 16.5085C4.7043 16.4666 3.04313 15.1684 2.47079 13.3816C2.75 13.4234 3.02917 13.4514 3.32234 13.4514C3.72715 13.4514 4.132 13.3955 4.50888 13.2978C2.4429 12.879 0.893363 11.0643 0.893363 8.8727V8.81689C1.49359 9.15191 2.19162 9.3613 2.93141 9.38919C1.71695 8.57953 0.921293 7.19757 0.921293 5.63411C0.921293 4.79656 1.1446 4.02879 1.53549 3.35874C3.75504 6.09477 7.09135 7.88154 10.8324 8.07701C10.7626 7.74198 10.7207 7.39303 10.7207 7.04404C10.7207 4.55924 12.7309 2.53516 15.2296 2.53516C16.5278 2.53516 17.7004 3.07957 18.524 3.95901C19.543 3.76359 20.5202 3.38667 21.3857 2.87018C21.0506 3.91716 20.3387 4.7966 19.4035 5.35494C20.3109 5.25727 21.1903 5.00595 21.9999 4.657C21.3858 5.55036 20.618 6.34601 19.7386 6.98818Z" fill="white"/>
</g>
</svg>
